PathFileType  4	(X/Y/Z) C:\Users\antoi\Documents\MyRepositories\mobilecap\ResultsAnalysis
DataRate	CameraRate	NumFrames	NumMarkers	Units	OrigDataRate	OrigDataStartFrame	OrigNumFrames
100.0	100.0	6	51	mm	100.0	166	1321
Frame#	Time	r_knee			r_shank_antsup			r_ankle			r_calc			r_5meta			r_toe			L_knee			L_shank_antsup			L_ankle			L_calc			L_5meta			L_toe			r_sh2			r_sh3			r_sh4			L_sh2			L_sh3			r_thigh1			r_thigh2			r_thigh3			r_thigh4			r_thigh5			L_thigh1			L_thigh2			L_thigh3			L_thigh4			r.ASIS			r.PSIS			L.ASIS			L.PSIS			C7			R_Shoulder			L_Shoulder			R_Sternum			L_Sternum			R_humerus			R_elbow_med			R_elbow_lat			R_forearm			R_wrist_radius			R_wrist_ulna			L_humerus			L_elbow_med			L_elbow_lat			L_forearm			L_wrist_radius			L_wrist_ulna			R_HJC			L_HJC			R_HJC_reg			L_HJC_reg			
		X1	Y1	Z1	X2	Y2	Z2	X3	Y3	Z3	X4	Y4	Z4	X5	Y5	Z5	X6	Y6	Z6	X7	Y7	Z7	X8	Y8	Z8	X9	Y9	Z9	X10	Y10	Z10	X11	Y11	Z11	X12	Y12	Z12	X13	Y13	Z13	X14	Y14	Z14	X15	Y15	Z15	X16	Y16	Z16	X17	Y17	Z17	X18	Y18	Z18	X19	Y19	Z19	X20	Y20	Z20	X21	Y21	Z21	X22	Y22	Z22	X23	Y23	Z23	X24	Y24	Z24	X25	Y25	Z25	X26	Y26	Z26	X27	Y27	Z27	X28	Y28	Z28	X29	Y29	Z29	X30	Y30	Z30	X31	Y31	Z31	X32	Y32	Z32	X33	Y33	Z33	X34	Y34	Z34	X35	Y35	Z35	X36	Y36	Z36	X37	Y37	Z37	X38	Y38	Z38	X39	Y39	Z39	X40	Y40	Z40	X41	Y41	Z41	X42	Y42	Z42	X43	Y43	Z43	X44	Y44	Z44	X45	Y45	Z45	X46	Y46	Z46	X47	Y47	Z47	X48	Y48	Z48	X49	Y49	Z49	X50	Y50	Z50	X51	Y51	Z51	

166	1.65000000	-159.37525	435.36150	-400.25828	-114.17798	369.56562	-406.17280	-279.57648	82.46351	-427.93425	-334.79583	52.23416	-473.74053	-174.87219	43.22458	-400.07161	-136.40806	63.28299	-451.88875	-160.00768	447.14645	-753.61454	-123.47852	353.88454	-763.59851	-276.54194	94.29657	-791.96533	-335.87960	51.84012	-748.73594	-180.08523	46.26564	-829.84265	-128.96337	65.76175	-778.64597	-161.15136	265.75714	-405.70193	-175.72764	397.24023	-370.66451	-230.43834	295.78258	-369.81039	-196.46606	400.05363	-788.12124	-243.14138	289.33378	-809.95607	-311.33566	623.82045	-328.68333	-224.77067	557.11407	-351.96439	-296.37644	474.86348	-381.26886	-386.48484	543.03234	-348.96460	-250.53482	491.72452	-356.33997	-339.30051	661.63299	-729.31274	-231.89538	573.61855	-740.16837	-416.06551	578.24651	-728.89649	-307.91697	489.07153	-726.79409	-326.13241	720.82470	-410.60897	-489.13191	836.89741	-476.72118	-323.26805	714.67464	-620.99859	-486.62786	831.30639	-557.95857	-178.09780	1140.05076	-495.33356	-102.34686	1104.83244	-373.85078	-121.79352	1105.32943	-622.95787	-71.80944	1044.05342	-484.04689	-75.70478	1043.59765	-513.17518	-27.89596	1063.82393	-316.46839	95.32313	894.82406	-260.13463	110.10401	949.98355	-220.66035	179.93236	1004.28013	-258.12180	299.31545	1041.57554	-327.10093	318.86544	1019.26539	-302.38394	-66.40345	1071.86445	-701.73939	79.25596	916.87633	-758.85738	79.58258	973.56928	-793.00336	177.59333	1015.63470	-765.92278	291.38263	1040.40513	-714.29195	305.51917	1010.75992	-738.03702	-433.16508	677.35170	-408.39593	-432.95803	675.28691	-615.89246	-417.53431	697.31406	-440.27606	-413.26509	687.77900	-578.81209	
167	1.66000000	-160.40926	435.77204	-399.97416	-115.17717	370.22428	-405.73668	-279.64497	82.36906	-427.95397	-334.84931	52.14110	-473.69731	-174.89355	43.19603	-400.05254	-136.39920	63.38202	-451.73186	-160.58423	447.52756	-752.87379	-124.18390	354.41678	-762.99728	-276.52070	94.32872	-791.96903	-335.91661	51.79044	-748.69836	-180.08770	46.29737	-829.74528	-128.96274	65.77328	-778.57026	-162.00462	266.30046	-405.20416	-176.93909	397.67531	-370.06766	-230.55237	295.65608	-369.31533	-197.13653	400.38341	-787.40252	-243.79803	289.40196	-809.26208	-310.04702	626.56925	-328.19367	-224.34844	558.50693	-351.61434	-296.94273	477.21266	-381.13306	-386.06779	546.59124	-349.24753	-250.92383	493.67091	-355.90926	-337.02203	664.39604	-729.31725	-230.71587	574.91609	-739.93070	-414.74374	581.99063	-728.48494	-307.73191	491.40719	-725.99697	-324.69707	726.08204	-410.24381	-488.05473	841.64646	-476.68275	-321.24236	719.84380	-619.51728	-485.28725	836.11944	-557.82586	-179.94491	1147.63572	-494.45872	-104.94414	1112.48272	-372.56922	-123.74037	1113.20525	-622.45075	-72.90288	1052.47233	-483.04649	-76.95627	1051.91502	-512.28632	-30.69127	1070.94269	-315.07252	92.17089	901.04648	-259.80076	107.07754	956.03846	-219.92594	177.07123	1010.19897	-257.16169	296.70368	1047.37654	-326.01366	316.08626	1024.89938	-301.38620	-68.61280	1079.40727	-701.54624	76.34157	923.66658	-758.65731	76.73330	980.30172	-793.28686	174.93901	1022.09999	-766.28184	288.93828	1046.60948	-715.00660	302.96872	1016.80210	-738.61600	-431.75888	682.37093	-407.88708	-430.80505	680.09687	-615.37933	-415.77979	702.39223	-440.02257	-411.08160	693.00571	-577.82365	
168	1.67000000	-161.49644	436.20425	-399.68033	-116.18203	370.98741	-405.05613	-279.72364	82.29318	-428.00889	-334.93021	52.02967	-473.64833	-174.94064	43.11670	-400.02004	-136.42990	63.44421	-451.60352	-161.10463	448.05558	-752.44714	-124.91122	354.88881	-762.38691	-276.54359	94.33582	-791.95757	-335.94542	51.78958	-748.71485	-180.08329	46.32535	-829.71023	-128.96566	65.83913	-778.51535	-162.76602	266.60531	-404.75187	-178.21576	397.95754	-369.67547	-231.15579	295.38970	-368.99422	-197.86992	400.69143	-786.57286	-244.38673	289.66290	-808.77450	-308.86615	629.13534	-327.89446	-223.78185	560.00016	-351.25082	-297.56023	479.67886	-380.97181	-385.78642	550.11098	-349.56304	-251.31576	495.62128	-355.42370	-334.66959	667.14218	-729.14872	-229.50352	576.32595	-739.57094	-413.39169	585.82344	-727.95102	-307.53791	493.81415	-725.27838	-323.22677	731.32677	-409.83939	-486.94644	846.41958	-476.58833	-319.12982	725.26812	-618.75185	-483.89788	840.92301	-557.86906	-181.85291	1155.23581	-493.52966	-107.55333	1120.09718	-371.31786	-125.73042	1121.08307	-621.97231	-74.12318	1060.93899	-482.01597	-78.28528	1060.30900	-511.28143	-33.55734	1078.05152	-313.51351	88.93560	907.37893	-259.19572	103.95999	962.08879	-219.20261	174.17173	1016.05655	-256.15345	294.00928	1052.99863	-324.71297	313.28203	1030.37611	-300.36995	-70.85640	1086.97160	-701.47926	73.38980	930.50098	-758.41234	73.95096	986.99613	-793.44404	172.33056	1028.45248	-766.75794	286.58574	1052.69057	-715.68611	300.50166	1022.77361	-739.11420	-430.22335	687.28286	-407.71486	-428.56956	685.10450	-615.20430	-414.10667	707.45156	-439.86011	-408.94687	698.14929	-577.41633	
169	1.68000000	-162.69174	436.76894	-399.17893	-117.31724	371.61098	-404.32939	-279.86640	82.21541	-427.94196	-334.96097	51.98383	-473.60379	-174.97527	43.07953	-399.99160	-136.50756	63.50378	-451.53400	-161.62724	448.59874	-752.02758	-125.65901	355.32337	-761.77273	-276.62115	94.34909	-791.92869	-335.93359	51.83775	-748.79763	-180.07893	46.35045	-829.69477	-128.96448	65.94515	-778.45413	-163.59820	266.85885	-404.28717	-179.59429	398.18514	-369.33607	-232.36672	295.36645	-369.06623	-198.66191	400.95775	-785.93139	-244.90426	289.98254	-808.54349	-307.61089	631.69237	-327.77508	-223.22578	561.57100	-350.91158	-298.19019	482.20300	-380.78028	-385.59719	553.83453	-349.70429	-251.79339	497.48603	-355.03108	-332.23361	669.88585	-728.91439	-228.24760	577.77669	-739.23262	-411.98754	589.68388	-727.37759	-307.28934	496.29160	-724.63507	-321.62597	736.62309	-409.35112	-485.79057	851.23397	-476.44068	-316.86998	730.91242	-618.68737	-482.49937	845.76219	-557.93484	-183.88581	1162.90649	-492.56801	-110.26098	1127.80149	-369.91179	-127.69516	1128.95990	-621.49291	-75.67464	1069.41624	-481.12135	-79.57596	1068.79586	-510.36241	-36.47822	1084.95963	-311.77829	85.41550	913.65740	-258.63035	100.72234	968.01494	-218.62240	171.23822	1021.86755	-255.12809	291.23706	1058.57698	-323.41837	310.36309	1035.76399	-299.15345	-73.06905	1094.44235	-701.35450	70.47789	937.41402	-758.26403	71.23305	993.72086	-793.37189	169.86237	1034.81274	-767.12505	284.34071	1058.69692	-716.25791	298.08957	1028.66886	-739.56696	-428.46734	692.13687	-407.78789	-426.23586	690.29957	-615.27521	-412.40288	712.46662	-439.69249	-406.83624	703.21246	-577.51920	
170	1.69000000	-163.97189	437.38999	-398.51489	-118.62339	372.05536	-403.71197	-280.04459	82.10190	-427.83837	-334.92180	52.01421	-473.57939	-174.97747	43.11369	-399.94429	-136.57324	63.58306	-451.48635	-162.21992	449.05023	-751.40887	-126.39423	355.83090	-761.25851	-276.71405	94.38388	-791.93808	-335.94138	51.84483	-748.86910	-180.08778	46.37320	-829.67020	-128.97585	66.05958	-778.41172	-164.59154	267.31063	-403.71580	-180.98127	398.59488	-368.68469	-234.07597	295.74997	-368.88636	-199.50000	401.30053	-785.71646	-245.42686	290.21996	-808.45794	-306.24855	634.32736	-327.79448	-222.98622	562.93764	-350.41046	-298.82021	484.57689	-380.60918	-385.39794	557.75727	-349.68587	-252.35642	499.49904	-354.35519	-329.74712	672.72255	-728.71965	-227.23618	579.31580	-739.02068	-410.49672	593.60251	-726.81209	-306.94449	498.91357	-724.33546	-319.90720	742.08154	-408.81782	-484.60842	856.05532	-476.38071	-314.47573	736.45960	-618.31080	-481.05963	850.60735	-557.92987	-186.05502	1170.60640	-491.60923	-113.01481	1135.65777	-368.42675	-129.60715	1136.92722	-621.01425	-77.54313	1077.81860	-480.27489	-80.80776	1077.33167	-509.64208	-39.40581	1091.77200	-310.03882	81.70198	919.73481	-258.38568	97.32034	973.81243	-218.09248	168.22420	1027.57563	-254.14655	288.38146	1064.13667	-322.28242	307.37073	1040.95390	-297.96091	-75.27911	1101.85383	-701.07453	67.63102	944.26827	-758.00865	68.56727	1000.54448	-793.12197	167.52500	1041.25574	-767.23621	282.18454	1064.65689	-716.64569	295.71179	1034.48388	-739.90518	-426.61514	697.13164	-407.66117	-423.76799	695.38878	-615.14167	-410.53216	717.51311	-439.44931	-404.53042	708.29899	-577.37304	
171	1.70000000	-165.28983	437.97111	-397.89975	-120.04037	372.50392	-403.10324	-280.16353	82.02359	-427.79960	-334.89572	52.04610	-473.57613	-174.95904	43.13561	-399.85449	-136.58355	63.63037	-451.42086	-162.84294	449.48160	-750.84660	-127.14592	356.34898	-760.83818	-276.77577	94.40797	-792.00367	-336.00362	51.79679	-748.88778	-180.09749	46.37559	-829.66408	-128.99625	66.12689	-778.40686	-165.59875	267.91690	-402.96644	-182.29028	399.15743	-367.79282	-235.52699	296.22050	-368.11829	-200.41883	401.69426	-785.54770	-245.96168	290.46326	-808.46162	-304.90737	637.00412	-327.80269	-222.97953	564.27256	-349.73563	-299.49897	486.84028	-380.47096	-385.18464	561.68214	-349.73206	-252.95805	501.76619	-353.34477	-327.19311	675.66947	-728.61962	-226.44148	580.91499	-738.90050	-408.94118	597.59696	-726.35579	-306.63951	501.61282	-724.27209	-318.18019	747.64924	-408.31546	-483.40289	860.84364	-476.44532	-311.97296	741.92172	-617.56684	-479.52150	855.42231	-557.92226	-188.23317	1178.29221	-490.79201	-115.73903	1143.62237	-366.96754	-131.48578	1145.02805	-620.44699	-79.29724	1086.27678	-479.36569	-82.07820	1085.91265	-508.96410	-42.30499	1098.70021	-308.45926	78.00741	925.72195	-258.20341	93.78279	979.51184	-217.56563	165.05176	1033.09777	-253.22070	285.40656	1069.50915	-321.15220	304.29457	1045.93506	-296.93721	-77.45623	1109.22290	-700.76787	64.83277	950.99033	-757.54170	65.92636	1007.37744	-792.79039	165.20312	1047.65853	-767.16907	280.04262	1070.59550	-716.87269	293.31428	1040.24910	-740.06345	-424.75322	702.21464	-407.40426	-421.16133	700.37521	-614.87243	-408.57808	722.59745	-439.25478	-402.01564	713.43131	-577.01255	
